<?xml version="1.0" encoding="UTF-8" standalone="no"?>
<!-- Created with Inkscape (http://www.inkscape.org/) -->

<svg
   width="77.731705mm"
   height="77.90583mm"
   viewBox="0 0 77.731705 77.90583"
   version="1.1"
   id="svg5"
   xml:space="preserve"
   xmlns:inkscape="http://www.inkscape.org/namespaces/inkscape"
   xmlns:sodipodi="http://sodipodi.sourceforge.net/DTD/sodipodi-0.dtd"
   xmlns:xlink="http://www.w3.org/1999/xlink"
   xmlns="http://www.w3.org/2000/svg"
   xmlns:svg="http://www.w3.org/2000/svg"><g
     inkscape:label="Layer 1"
     inkscape:groupmode="layer"
     id="layer1"
     transform="translate(-8.3703768,-25.802186)"><g
       id="g19496"
       inkscape:label="SusanBurton"><circle
         style="fill:#90e9ff;stroke-width:7.12716;stroke-linecap:round"
         id="path348"
         cx="47.236229"
         cy="64.668037"
         r="38.865852"
         inkscape:label="SusanBurtonCircle" /><g
         id="g19472"
         inkscape:label="SusanBurtonFill"><path
           style="display:inline;fill:#764c38;fill-opacity:1;stroke:none;stroke-width:1.00172;stroke-linecap:round"
           d="m 43.584431,45.522882 c -0.369933,0.04625 -0.513361,0.457324 -0.743331,0.698913 -0.343355,0.485835 -0.853567,0.819901 -1.411266,1.011909 -0.513377,0.187349 -1.033555,0.401738 -1.433732,0.789607 -0.549357,0.47658 -1.300015,0.638839 -2.009998,0.548912 -0.280855,-0.05798 -0.532683,0.172485 -0.526864,0.453435 -0.13235,1.145231 -0.66303,2.19024 -0.996427,3.282561 -0.184292,0.592961 -0.398811,1.191919 -0.475191,1.806795 0.03261,0.32599 0.441732,0.248258 0.677235,0.304369 1.006549,0.131889 1.920365,0.575815 2.837492,0.974783 0.579343,0.251812 1.292895,0.292269 1.82689,-0.09021 0.632182,-0.478219 1.151602,-1.121289 1.84577,-1.503971 0.952199,-0.557821 2.069651,-0.822926 3.156514,-0.88165 1.301036,-0.04025 2.588101,-0.04446 3.862017,0.184444 0.934643,0.147539 1.856301,0.338661 2.746785,0.660235 0.28933,0.03096 0.3859,-0.358089 0.182086,-0.524467 -0.136252,-0.184947 -0.409331,-0.399434 -0.328509,-0.655714 0.254593,-0.261104 0.667364,-0.23889 1.005057,-0.276903 0.408638,-0.04253 0.894881,0.147447 1.236337,-0.180819 0.220744,-0.144108 0.346498,-0.494575 0.09551,-0.674452 -0.42481,-0.419539 -1.074494,-0.312118 -1.615308,-0.345117 -0.467304,0.0075 -0.96643,-0.0016 -1.361836,-0.286263 -0.354476,-0.263472 -0.768157,-0.564176 -0.886826,-1.01342 -0.09184,-0.299715 0.174395,-0.552712 0.454888,-0.585698 0.281376,-0.09191 0.711761,0.08316 0.868619,-0.251873 0.08193,-0.322958 -0.243824,-0.567277 -0.462322,-0.748911 -0.237636,-0.199041 -0.573149,-0.343024 -0.867648,-0.172598 -0.4977,0.190727 -0.837827,0.700982 -1.403014,0.72808 -0.235749,0.05787 -0.402469,-0.217744 -0.272585,-0.413123 0.111435,-0.30285 0.447316,-0.369609 0.694206,-0.515535 0.282369,-0.175371 0.251714,-0.587428 0.01228,-0.786522 -0.222546,-0.226583 -0.60883,-0.520036 -0.919729,-0.285586 -0.348993,0.280271 -0.598299,0.78771 -1.093023,0.81492 -0.344728,-0.09815 -0.568912,-0.530643 -0.97224,-0.421987 -0.09458,-0.003 -0.473631,0.106236 -0.235688,-0.03711 0.431903,-0.323009 0.967218,-0.509114 1.350211,-0.892709 0.167023,-0.230257 -0.109593,-0.524135 -0.35967,-0.42794 -0.680947,0.175178 -1.251434,0.628684 -1.907579,0.866415 -0.181547,0.02394 -0.449636,0.06666 -0.561438,-0.117372 0.211293,-0.300347 0.629348,-0.336396 0.871426,-0.595503 0.169773,-0.241956 -0.126852,-0.515133 -0.374689,-0.421722 -0.508995,0.07991 -1.023798,0.248804 -1.381895,0.639069 -0.122066,0.104011 -0.268706,0.273037 -0.382255,0.336537 0.0024,-0.300032 0.179989,-0.688541 -0.08685,-0.921263 -0.124524,-0.115176 -0.279276,-0.01783 -0.415608,-0.02439 -0.07714,-0.0245 -0.155527,-0.05213 -0.237794,-0.04815 z"
           id="path13304"
           inkscape:label="forehead" /><path
           style="display:inline;fill:#140f10;fill-opacity:1;stroke:none;stroke-width:3.78603;stroke-linecap:round"
           d="m 151.92372,129.86676 c -2.12749,0.0302 -3.39948,2.02031 -4.75714,3.3647 -2.67462,3.05202 -5.89435,5.58217 -8.50647,8.68695 -1.3591,1.68012 -2.42095,4.06077 -1.41367,6.17643 0.16831,0.49051 0.59658,1.04686 0.72965,1.42828 -2.93784,0.15836 -6.03045,1.20312 -7.80132,3.68806 -2.59706,3.33382 -1.61607,8.0127 -3.93183,11.48389 -0.83872,1.51286 -2.29975,2.56423 -3.15632,4.04794 -0.46405,1.3351 1.09434,2.03499 2.0042,2.60648 0.81143,0.24335 1.02514,0.70912 0.21385,1.18397 -1.17362,0.99712 -3.12903,1.85263 -3.08414,3.66198 0.29194,2.04797 2.00989,3.5579 3.25241,4.98073 -1.33243,0.96933 -1.81086,2.76044 -1.92151,4.33627 -9.7e-4,2.1306 -0.31366,4.74794 1.50425,6.29389 1.00886,0.97293 2.55882,1.02059 3.81049,0.54408 -0.92712,1.85932 -1.49475,4.08899 -0.86855,6.1216 1.1914,2.33582 4.31059,2.8778 5.39524,5.28021 0.14995,0.8054 0.47709,1.90618 1.51777,1.74754 0.85023,0.13564 2.20784,-0.19641 1.96533,-1.32 -0.008,0.25593 0.0794,-0.0438 0.16268,-0.61695 1.12964,-5.7437 3.90772,-11.04201 5.20528,-16.75642 0.16479,-0.83538 0.25141,-1.68586 0.25831,-2.53731 2.76632,0.52802 5.82332,0.31019 8.16423,-1.39314 1.60853,-1.21298 3.1836,-2.49292 5.10157,-3.13155 2.23352,-0.77876 4.52154,-1.73767 6.0326,-3.64832 1.0339,-1.0302 1.7159,-2.43985 2.91613,-3.27739 0.64406,0.29987 1.38699,0.21005 2.03797,0.14302 0.40173,0.93783 -0.41057,2.26043 0.44471,3.03758 0.96066,0.75836 1.80411,-0.44491 2.47682,-1.01108 1.70549,-1.68533 4.20287,-2.04822 6.45824,-2.20658 -1.49921,0.78553 -3.25995,1.30341 -4.43171,2.57464 -0.63829,1.02252 0.5419,1.93509 1.49526,1.98032 1.65716,0.24876 3.06938,-0.94893 4.52084,-1.54848 1.57858,-0.70468 3.10694,-1.8426 4.8905,-1.87001 -0.0869,0.42879 -0.82993,0.80769 -1.23997,1.10299 -1.1682,0.84095 -2.61095,1.32586 -3.63452,2.34954 -0.52619,0.85045 0.35364,1.74739 1.2298,1.69318 1.53389,-0.13338 2.28726,1.8335 3.8481,1.6446 2.08352,-0.26205 2.99286,-2.5231 4.70402,-3.427 1.16275,0.19541 2.65106,1.24958 2.35613,2.57382 -0.95838,0.79469 -2.36016,1.07764 -3.04817,2.21915 -0.80143,1.03508 -0.41694,3.03852 1.09392,3.08522 1.93692,0.19622 3.58179,-1.04271 4.97881,-2.21393 1.10049,-0.85475 2.76989,-0.99832 3.78359,0.0826 0.52369,0.51875 1.32417,1.16046 1.3333,1.91197 -1.08347,0.22403 -2.34699,0.0109 -3.42837,0.48067 -1.65793,0.4878 -2.1418,2.59995 -1.26385,3.96778 1.07943,1.87259 2.86734,3.32745 4.84073,4.17559 2.9133,0.98631 6.17576,-0.23104 9.01439,1.05879 0.58782,0.18071 1.17722,0.92971 0.57867,1.44914 -0.49124,0.66688 -1.23494,0.88726 -2.03385,0.75633 -2.10151,0.0881 -4.40666,-0.20526 -6.31238,0.86466 -1.10104,0.63447 -0.91104,2.12023 -0.15757,2.94413 1.12689,1.59612 2.83822,2.62655 4.31394,3.8308 1.25838,1.19509 2.98241,1.76466 4.40076,2.75168 6.63764,4.05459 12.39943,9.4119 18.83989,13.792 0.83551,0.6353 1.87073,-0.19099 1.87354,-1.12248 0.58279,-3.61483 3.83065,-5.85307 5.53826,-8.88811 0.69927,-1.04094 0.46559,-2.36196 -0.20339,-3.35165 -1.09711,-1.78096 -2.17896,-3.72563 -3.93048,-4.94051 -0.39303,-0.27452 -1.04051,-0.15667 -1.35663,-0.43125 -0.25059,-0.58341 -0.12732,-1.19814 0.37114,-1.59574 1.04546,-1.43429 2.6935,-2.68847 2.8917,-4.56264 -0.0637,-1.75529 -1.05271,-3.34694 -1.24107,-5.06418 0.2739,-1.99175 0.1733,-4.31101 -1.42334,-5.7576 -0.14268,-0.5292 0.53527,-1.00399 0.65965,-1.50981 0.68726,-1.02531 0.13154,-2.33444 -0.8562,-2.92848 -1.24972,-0.97952 -2.87345,-1.30507 -4.2615,-1.9397 0.0142,-0.83785 0.71249,-1.54124 0.97204,-2.3273 0.69423,-1.29338 0.43726,-2.93566 -0.63989,-3.94006 -1.41436,-1.64238 -3.50638,-2.43592 -5.32963,-3.46927 -0.80229,-3.75793 -2.9772,-7.01534 -4.748,-10.36807 -0.84746,-1.52143 -1.80808,-3.43842 -3.75964,-3.6523 -1.17934,-2.05557 -3.01901,-3.68748 -5.09522,-4.83588 -2.38918,-1.35302 -4.97318,-2.89863 -5.97448,-5.61439 -0.44394,-1.36632 -1.36727,-2.70432 -2.86443,-3.0008 -1.87354,-0.53781 -3.91465,-0.99366 -5.25419,-2.53288 -2.00409,-2.11872 -4.78431,-3.76836 -7.79364,-3.51814 -2.4355,0.0903 -4.4314,1.91255 -6.90835,1.76978 -1.17668,0.0746 -2.92264,-0.28329 -3.45994,1.11341 0.009,0.52434 -0.18908,0.67586 -0.69835,0.51306 -2.00054,-0.2499 -3.99467,-1.38182 -4.96645,-3.17554 -0.57193,-1.56008 0.30967,-3.41928 -0.66981,-4.84292 -1.07807,-0.97136 -2.67316,-0.4042 -3.94363,-0.22263 -1.01614,0.16583 -2.02987,0.79874 -3.0126,0.20485 -1.01842,-0.51129 -2.71386,-0.36219 -2.94785,0.97555 -0.0653,0.50422 -0.84998,-0.40175 -1.21989,-0.46418 -1.4366,-0.76898 -2.95192,-1.6603 -4.63077,-1.66521 z m 51.49854,74.26621 c -0.0649,-0.30369 -0.0441,-0.43895 0,0 z"
           id="path19317"
           transform="scale(0.26458333)"
           inkscape:label="hair" /><path
           style="display:inline;fill:#140f10;fill-opacity:1;stroke:none;stroke-width:3.78603;stroke-linecap:round"
           d="m 232.57176,235.49338 c -1.24994,0.27846 -0.9732,1.83748 -1.33243,2.7399 -1.15881,4.82296 -2.63765,9.72756 -5.59348,13.7821 -0.77501,1.07668 -1.79466,1.93248 -2.75389,2.82005 -0.65994,1.38073 -0.52129,3.00041 -0.75269,4.49019 -0.29526,0.84955 0.35062,1.95564 1.32202,1.60835 1.30549,-0.58825 2.66679,-1.14882 4.13414,-0.97123 1.06644,-0.0811 1.11632,-1.30641 0.71455,-2.05855 -0.34074,-1.58705 0.90991,-2.92975 1.88278,-4.03634 2.26742,-2.5345 5.3198,-4.82568 6.10522,-8.34081 0.39656,-2.61041 -0.14788,-5.29813 -1.42544,-7.60026 -0.55302,-0.8997 -0.9739,-2.53017 -2.30078,-2.4334 z"
           id="path19319"
           transform="scale(0.26458333)"
           inkscape:label="hair2" /><path
           style="display:inline;fill:#764c38;fill-opacity:1;stroke:none;stroke-width:7.4182;stroke-linecap:round"
           d="m 196.53364,211.63747 c -2.2876,0.21196 -2.16214,3.18705 -2.89741,4.78073 -1.41409,5.05882 -3.27659,10.29931 -7.53665,13.65786 -5.14412,4.17996 -12.60171,4.90055 -18.62846,2.33434 -4.48214,-1.97806 -7.63321,-5.98779 -9.70688,-10.31197 -1.29213,-2.08422 -2.255,-4.70861 -4.41964,-6.03164 -1.89491,-0.2877 -2.19322,2.28804 -2.68665,3.57197 -0.6751,2.09554 -0.33858,4.43427 -1.71202,6.2925 -1.31488,2.05078 -2.35063,4.25381 -3.45526,6.40707 -3.51092,4.36845 -9.62868,6.63193 -15.10274,5.21192 -1.91133,0.36843 -1.09597,2.85691 -1.26295,4.2308 0.30484,10.43918 0.0445,21.47659 5.09054,30.96652 3.62596,6.9336 8.07944,13.69715 14.24364,18.63126 2.39374,1.5136 4.86579,3.48862 5.18987,6.51786 0.72766,4.15583 2.90841,7.93452 3.51872,12.09662 -1.26764,3.33728 -3.54927,6.23923 -5.14558,9.44044 -1.00994,2.24025 -3.24622,4.75908 -2.0145,7.327 2.00267,3.27692 6.10357,4.45731 9.69289,4.93384 3.76965,0.0379 7.6874,0.0475 11.29681,-1.13651 1.49018,-1.64332 1.77256,-4.1015 2.64652,-6.10776 4.78146,-14.4422 13.14334,-27.5554 23.38728,-38.84172 7.20706,-7.89798 14.5894,-15.75247 22.9234,-22.41315 1.29322,-1.001 3.288,-1.66774 2.94517,-3.69063 0.46345,-1.71589 -0.29321,-4.06835 1.53088,-5.07418 4.43776,-4.35227 6.17704,-10.61941 7.74312,-16.45332 0.69634,-3.99411 0.44382,-8.12534 0.025,-12.1399 -0.16855,-2.96334 -2.77007,-5.49186 -5.76726,-5.33161 -1.81703,0.12596 -3.20228,1.44119 -4.73591,2.26226 -7.684,-3.82729 -15.24112,-8.06487 -23.3902,-10.83854 -0.57776,-0.15548 -1.16903,-0.3045 -1.77173,-0.29206 z"
           id="path13298"
           inkscape:label="chin"
           transform="scale(0.26458333)" /><path
           style="fill:#ffcc00;fill-opacity:1;stroke:none;stroke-width:14.6362;stroke-linecap:round"
           d="m 226.35651,259.26803 c -5.95969,1.75307 -10.28589,6.78837 -14.90358,10.70437 -16.25132,15.6552 -31.82633,33.35811 -38.65353,55.31679 -1.0071,2.09618 -1.31411,5.87425 -4.51055,5.25867 -5.68829,-0.11145 -12.78568,1.66807 -17.08772,-3.15288 -2.44828,-3.03158 1.09251,-6.40773 2.16488,-9.25912 1.29269,-2.93152 3.86318,-5.56176 4.33507,-8.73594 -1.34245,-4.13074 -2.21842,-8.61173 -4.06764,-12.47991 -3.00404,-0.62687 -5.70694,2.09352 -8.34117,3.22292 -23.9083,13.88811 -40.98818,37.86807 -48.943322,64.09007 -0.614995,4.07974 4.560372,5.15842 7.007252,7.18913 21.80796,12.87979 47.04274,20.09774 72.3728,20.51554 27.41037,0.55186 54.92366,-6.60469 78.36136,-20.88316 12.37089,-7.48854 23.91932,-16.7417 33.61903,-27.32447 -2.01154,-9.96207 -6.62918,-19.97072 -5.21864,-30.38407 -0.24252,-4.30995 2.25965,-9.51091 -0.74083,-13.27308 -5.10136,-3.85039 -10.29952,-7.6317 -15.12341,-11.86441 -7.2844,-5.98113 -17.16934,-11.65713 -26.80593,-8.02684 -2.29847,1.68162 -1.46779,-1.9019 -1.4235,-3.21038 0.20024,-2.27204 1.92111,-6.8228 -1.64913,-7.21734 -1.30639,0.0108 -2.84027,0.85196 -2.8292,-1.06865 -1.85837,-3.31565 -3.40932,-7.60802 -6.97432,-9.38434 -0.19331,-0.0365 -0.39176,-0.0471 -0.58792,-0.0329 z"
           id="path19392"
           transform="scale(0.26458333)"
           inkscape:label="shirt" /><path
           style="fill:#800066;fill-opacity:1;stroke:none;stroke-width:14.6362;stroke-linecap:round"
           d="m 176.9887,199.37401 c -7.53861,-0.31167 -14.83292,2.93035 -20.06973,8.27749 -4.43198,3.80795 -9.85846,-0.57719 -14.51585,-1.5445 -8.41943,-2.40089 -18.2822,-1.02222 -25.02722,4.73771 -1.6561,3.48421 0.21456,7.58645 0.71738,11.17355 1.45942,7.16994 6.05674,15.33946 14.02611,16.27801 6.46867,0.8569 12.75739,-3.00452 15.47443,-8.83784 2.42913,-3.44517 3.15514,-7.56751 4.1878,-11.52373 0.70686,-2.35903 3.02817,-0.0443 3.59328,1.15566 3.05878,5.37443 6.18011,11.37533 12.22203,13.90619 7.40658,3.18362 17.0894,1.07529 21.80164,-5.71678 3.14465,-4.34038 4.47894,-9.63491 5.92584,-14.70846 5.44626,-0.37676 10.26403,3.16106 15.1541,5.07103 4.02317,1.46466 7.61491,4.75309 11.97591,4.99673 1.77675,-0.41662 5.21868,-2.21969 2.32714,-3.75049 -10.22634,-7.69262 -20.48289,-16.91363 -33.7052,-18.60404 -4.64691,-0.7828 -9.38218,-0.97994 -14.08766,-0.91053 z"
           id="path19463"
           transform="scale(0.26458333)"
           inkscape:label="glasses" /></g></g></g></svg>
