<?xml version="1.0" encoding="UTF-8" standalone="no"?>
<!-- Created with Inkscape (http://www.inkscape.org/) -->

<svg
   width="77.731712mm"
   height="77.731705mm"
   viewBox="0 0 77.731712 77.731705"
   version="1.1"
   id="svg5"
   xml:space="preserve"
   xmlns:inkscape="http://www.inkscape.org/namespaces/inkscape"
   xmlns:sodipodi="http://sodipodi.sourceforge.net/DTD/sodipodi-0.dtd"
   xmlns="http://www.w3.org/2000/svg"
   xmlns:svg="http://www.w3.org/2000/svg"><sodipodi:namedview
     id="namedview7"
     pagecolor="#505050"
     bordercolor="#ffffff"
     borderopacity="1"
     inkscape:showpageshadow="0"
     inkscape:pageopacity="0"
     inkscape:pagecheckerboard="1"
     inkscape:deskcolor="#505050"
     inkscape:document-units="mm"
     showgrid="false" /><defs
     id="defs2" /><g
     inkscape:label="Layer 1"
     inkscape:groupmode="layer"
     id="layer1"
     transform="translate(-97.574778,-138.79101)"><g
       id="g20870"
       inkscape:label="VotingRights"
       transform="translate(-10.874071,5.090064)"><circle
         style="fill:#de87aa;stroke-width:7.12716;stroke-linecap:round"
         id="circle19577"
         cx="147.3147"
         cy="172.5668"
         r="38.865852"
         inkscape:label="SusanBurtonCircle" /><g
         id="g20176"
         transform="matrix(0.82129983,0,0,0.82129983,59.230012,27.12488)"
         inkscape:label="IDCard"><rect
           style="fill:#f9f9f9;fill-opacity:1;stroke:none;stroke-width:7.12716;stroke-linecap:round"
           id="rect19632"
           width="48.811733"
           height="32.621265"
           x="75.849022"
           y="153.4045"
           ry="3"
           inkscape:label="IDBackground" /><g
           id="g20168"
           transform="translate(0,0.76513112)"
           inkscape:label="IDLines"><rect
             style="fill:#1a1a1a;fill-opacity:1;stroke:none;stroke-width:7.12716;stroke-linecap:round"
             id="rect19738"
             width="28.439247"
             height="2.065872"
             x="92.993797"
             y="162.30231"
             ry="0.50288403"
             inkscape:label="line3" /><rect
             style="fill:#1a1a1a;fill-opacity:1;stroke:none;stroke-width:7.12716;stroke-linecap:round"
             id="rect19792"
             width="28.439247"
             height="2.065872"
             x="92.993797"
             y="167.91705"
             ry="0.50288403"
             inkscape:label="line2" /><rect
             style="fill:#1a1a1a;fill-opacity:1;stroke:none;stroke-width:7.12716;stroke-linecap:round"
             id="rect19794"
             width="28.439247"
             height="2.065872"
             x="92.993797"
             y="173.53181"
             ry="0.50288403"
             inkscape:label="line1" /></g><path
           id="path19850"
           style="fill:#1a1a1a;stroke-width:10.0163;stroke-linecap:round"
           d="m 84.428259,163.09314 c -2.060179,0.001 -3.383001,2.6625 -3.149964,4.09685 0.141137,1.17104 1.025557,2.77214 1.566153,2.83869 0.130168,0.27992 -0.02937,0.57768 -0.158249,0.74613 -0.356025,0.12578 -1.714352,0.16327 -2.023248,0.38189 -1.721672,1.21854 -2.414374,2.95005 -2.414297,5.18041 h 6.117481 0.125556 6.117481 c 7.7e-5,-2.23036 -0.69328,-3.96187 -2.414951,-5.18041 -0.308896,-0.21862 -1.667224,-0.25611 -2.023247,-0.38189 -0.128886,-0.16845 -0.287765,-0.46621 -0.157597,-0.74613 0.540597,-0.0666 1.425017,-1.66765 1.566154,-2.83869 0.233037,-1.43435 -1.089785,-4.09555 -3.149964,-4.09685 z"
           inkscape:label="photo" /></g><g
         id="g20303"
         transform="matrix(1.5957263,0,0,1.5957263,-81.736684,-110.5837)"
         inkscape:label="voter"><path
           sodipodi:type="star"
           style="fill:#f9f9f9;fill-opacity:1;stroke:#0000ff;stroke-width:1.18583;stroke-linecap:round"
           id="path19956"
           inkscape:flatsided="false"
           sodipodi:sides="17"
           sodipodi:cx="136.68573"
           sodipodi:cy="175.68102"
           sodipodi:r1="11.315603"
           sodipodi:r2="9.5585203"
           sodipodi:arg1="1.2296527"
           sodipodi:arg2="1.40335"
           inkscape:rounded="0"
           inkscape:randomized="0"
           d="m 140.47154,186.34453 -2.19274,-1.23868 -1.91502,1.88619 -1.5972,-1.94715 -2.46707,1.06704 -0.78595,-2.39264 -2.68594,0.10378 0.13144,-2.51499 -2.54205,-0.8735 1.03108,-2.29768 -2.05484,-1.73281 1.79147,-1.77005 -1.29012,-2.35809 2.30991,-1.00337 -0.35115,-2.6649 2.51638,-0.10117 0.63523,-2.6118 2.38301,0.81468 1.53582,-2.20596 1.92779,1.6205 2.229,-1.50219 1.21222,2.20748 2.62113,-0.59555 0.33293,2.49632 2.65927,0.39153 -0.59133,2.44801 2.33826,1.32573 -1.43572,2.06909 1.70145,2.08089 -2.08621,1.41073 0.83485,2.555 -2.45495,0.56183 -0.1445,2.68406 -2.49212,-0.36294 z"
           inkscape:transform-center-x="-0.078763603"
           inkscape:transform-center-y="0.019751752"
           transform="translate(12.001577,10.670099)"
           inkscape:label="voterbadge" /><path
           style="fill:none;stroke:#aa0000;stroke-width:2.70105;stroke-linecap:butt;stroke-linejoin:miter;stroke-opacity:1"
           d="m 142.57351,187.42877 4.73327,3.62677 7.24702,-8.84608"
           id="path20299"
           sodipodi:nodetypes="ccc"
           inkscape:label="votercheck" /></g></g></g></svg>
